<svg width="320" height="320" viewBox="0 0 320 320" fill="none" xmlns="http://www.w3.org/2000/svg">
<path d="M230.414 235L230.27 174.52L200.606 224.344H190.094L160.574 175.816V235H138.686V134.2H157.982L195.71 196.84L232.862 134.2H252.014L252.302 235H230.414Z" fill="#ECECED" fill-opacity="0.5"/>
<path d="M137.517 134.016H158.829V174.912C153.357 179.04 147.021 182.208 139.821 184.416C132.621 186.624 125.373 187.728 118.077 187.728C107.613 187.728 98.2051 185.52 89.8531 181.104C81.5011 176.592 74.9251 170.4 70.1251 162.528C65.4211 154.56 63.0691 145.584 63.0691 135.6C63.0691 125.616 65.4211 116.688 70.1251 108.816C74.9251 100.848 81.5491 94.656 89.9971 90.24C98.4451 85.728 107.949 83.472 118.509 83.472C127.341 83.472 135.357 84.96 142.557 87.936C149.757 90.912 155.805 95.232 160.701 100.896L145.725 114.72C138.525 107.136 129.837 103.344 119.661 103.344C113.229 103.344 107.517 104.688 102.525 107.376C97.5331 110.064 93.6451 113.856 90.8611 118.752C88.0771 123.648 86.6851 129.264 86.6851 135.6C86.6851 141.84 88.0771 147.408 90.8611 152.304C93.6451 157.2 97.4851 161.04 102.381 163.824C107.373 166.512 113.037 167.856 119.373 167.856C126.093 167.856 132.141 166.416 137.517 163.536V134.016Z" fill="#F2F3F5"/>
</svg>
